<svg width="122" height="29" viewBox="0 0 122 29" fill="none" xmlns="http://www.w3.org/2000/svg">
<g clip-path="url(#clip0_2_40)">
<rect width="122" height="29" rx="14.5" fill="#CEE800"/>
<path d="M8.15983 -31.7383C13.1944 -31.6041 17.4234 -30.4629 21.0483 -27.7778C26.4185 -23.8844 29.1036 -18.5814 28.7679 -11.8686C28.6337 -9.31779 27.5597 -7.10258 25.8815 -5.22301C22.995 -1.93377 19.2359 -0.322714 14.8726 0.214305C14.4698 0.281432 14.1342 0.281432 13.7314 0.214305C9.36812 -0.524096 5.07197 -1.32962 1.17858 -3.54483C-3.85598 -6.56556 -6.47395 -11.0631 -6.40682 -16.9703C-6.27257 -23.7502 -0.969501 -30.1273 5.47473 -31.4698C6.54877 -31.6712 7.62281 -31.6712 8.15983 -31.7383ZM8.62972 -24.4215C7.68994 -24.2201 6.68302 -24.1529 5.81037 -23.8173C1.7156 -22.1391 -0.163972 -16.7018 2.05123 -12.8755C2.78963 -11.533 3.9308 -10.5261 5.27335 -9.85481C7.82419 -8.57939 10.5764 -7.77386 13.3958 -7.50535C14.7383 -7.37109 16.2151 -7.6396 17.4905 -8.17662C20.5784 -9.38491 21.8538 -11.7344 21.1825 -14.8222C20.5784 -17.6416 19.1687 -20.0582 16.7521 -21.7364C14.4027 -23.3474 11.6505 -24.1529 8.62972 -24.4215Z" fill="#F4FDAA"/>
<path d="M15.0084 -47.8486C17.7607 -47.5801 20.58 -47.513 23.3322 -47.1102C29.7093 -46.1033 34.8782 -42.8141 38.7715 -37.7124C43.8732 -31.1339 46.6255 -23.6156 46.894 -15.2247C47.0282 -12.0026 46.3569 -8.91473 45.0815 -5.96112C43.8732 -3.2089 42.3964 -0.590929 40.4497 1.75853C33.9384 9.54531 26.0173 15.0498 15.7468 16.4594C8.83272 17.3992 1.98572 16.9965 -4.52564 14.5799C-9.02317 12.8346 -13.1179 10.3508 -16.7428 7.19585C-17.9511 6.12181 -18.958 4.71213 -19.8307 3.30246C-22.1801 -0.65806 -23.5898 -5.02134 -24.8652 -9.38462C-25.268 -10.7272 -25.2009 -12.2711 -25.2009 -13.6808C-25.2009 -22.6758 -21.9788 -30.3284 -15.266 -36.437C-7.6135 -43.3511 1.31445 -47.3116 11.7863 -47.6473C12.8604 -47.6473 13.9344 -47.6473 15.0084 -47.6473C15.0084 -47.7144 15.0084 -47.7815 15.0084 -47.8486ZM14.8742 -40.3304C6.08049 -40.5989 -1.70629 -37.8466 -8.55328 -32.4093C-11.3726 -30.127 -13.7892 -27.509 -15.4003 -24.1527C-19.0923 -16.433 -18.3539 -8.98186 -14.0577 -1.7321C-13.3865 -0.590932 -12.3795 0.348854 -11.3055 1.15438C-9.56019 2.49693 -7.74775 3.70522 -5.86819 4.84639C-0.83363 7.93425 4.53656 9.67957 10.578 9.41106C22.2582 8.87404 30.7834 3.30246 36.892 -6.29676C37.6304 -7.43793 38.1674 -8.64622 38.5702 -9.92164C39.0401 -11.3313 39.3757 -12.8752 39.4428 -14.2849C39.4428 -21.6018 37.0262 -28.1132 32.4616 -33.6847C29.508 -37.2425 25.6817 -39.3906 20.9828 -39.8605C18.969 -40.129 16.888 -40.1961 14.8742 -40.3304Z" fill="#F4FDAA"/>
<path d="M5.00314 32.0999C-0.568439 32.0999 -5.20023 31.3615 -9.63064 29.549C-12.5171 28.3408 -15.1351 26.6626 -17.4174 24.4474C-20.5053 21.4266 -23.7274 18.4059 -26.8824 15.4523C-27.1509 15.1838 -27.4865 14.9824 -27.755 14.7139C-28.8291 13.707 -30.1045 12.7672 -30.9772 11.5589C-35.4747 5.45031 -38.8982 -1.1953 -39.7709 -8.91496C-40.5093 -15.4263 -39.4352 -21.6692 -36.9515 -27.6435C-35.0048 -32.4096 -32.5211 -36.84 -29.2318 -40.7334C-25.8755 -44.6939 -22.0492 -47.916 -17.4846 -50.3997C-12.0472 -53.2191 -6.54278 -55.9041 -0.769825 -58.0522C7.48685 -61.073 16.0792 -62.2813 24.8728 -61.9456C28.095 -61.8114 31.1828 -61.073 34.0022 -59.529C37.3585 -57.7166 40.7149 -55.837 43.8028 -53.6889C50.3141 -49.2585 54.2747 -42.8143 56.8255 -35.5645C60.4504 -25.2269 60.8531 -14.6208 57.9667 -4.01465C57.3625 -1.79945 56.557 0.415758 55.5501 2.42958C50.8512 11.6932 44.2055 19.1443 34.8077 23.9775C25.1414 28.9449 15.0051 31.63 5.00314 32.0999ZM4.86888 24.6488C14.0653 24.1117 23.2618 21.628 31.9212 17.1305C38.9696 13.4385 44.0042 7.79977 47.8975 1.01991C49.0387 -0.993917 50.0456 -3.20913 50.6498 -5.49146C53.2677 -15.0236 52.9321 -24.5556 49.4415 -33.8192C47.3605 -39.3237 44.3398 -44.224 39.3052 -47.6475C36.6201 -49.4599 33.7337 -51.071 30.8472 -52.682C28.632 -53.8903 26.2154 -54.4273 23.7317 -54.4945C16.012 -54.6287 8.42663 -53.5547 1.17687 -50.8025C-3.92481 -48.8558 -8.89224 -46.4392 -13.7254 -43.8883C-17.4846 -41.8745 -20.6395 -39.2565 -23.3918 -36.0344C-26.144 -32.8123 -28.1578 -29.1874 -29.836 -25.294C-32.3868 -19.3868 -33.2595 -13.3454 -31.9169 -7.03539C-31.3128 -4.21603 -30.5073 -1.59807 -28.2249 0.482883C-27.1509 1.48979 -26.3454 2.83235 -25.5398 4.04064C-24.8014 5.11468 -24.1302 6.18871 -23.526 7.32988C-22.5191 9.07519 -21.2437 10.552 -19.7669 11.8945C-17.4174 14.0426 -15.0008 16.2578 -12.7856 18.5402C-10.4362 20.8896 -7.68395 22.4335 -4.59609 23.3733C-1.64248 24.3131 1.31113 24.6488 4.86888 24.6488Z" fill="#F4FDAA"/>
<path d="M15.296 14.248C15.7013 14.3973 16.0267 14.648 16.272 15C16.528 15.352 16.656 15.8213 16.656 16.408C16.656 16.888 16.5707 17.2933 16.4 17.624C16.24 17.9547 16.0267 18.2213 15.76 18.424C15.4933 18.6267 15.2 18.776 14.88 18.872C14.56 18.9573 14.2507 19 13.952 19H11.104V10.008H13.664C13.9307 10.008 14.2187 10.04 14.528 10.104C14.848 10.168 15.1413 10.2853 15.408 10.456C15.6853 10.6267 15.9093 10.8667 16.08 11.176C16.2613 11.4747 16.352 11.864 16.352 12.344C16.352 12.824 16.256 13.224 16.064 13.544C15.872 13.864 15.616 14.0987 15.296 14.248ZM12.864 11.528V13.64H13.6C13.8667 13.64 14.1067 13.5547 14.32 13.384C14.544 13.2133 14.656 12.936 14.656 12.552C14.656 12.168 14.5493 11.9013 14.336 11.752C14.1227 11.6027 13.872 11.528 13.584 11.528H12.864ZM12.864 15.08V17.448H13.696C14.0267 17.448 14.304 17.3573 14.528 17.176C14.7627 16.9947 14.88 16.7013 14.88 16.296C14.88 16.072 14.8427 15.8853 14.768 15.736C14.6933 15.576 14.5973 15.448 14.48 15.352C14.3627 15.256 14.2293 15.1867 14.08 15.144C13.9413 15.1013 13.8027 15.08 13.664 15.08H12.864ZM18.4634 19V10.008H20.3194V19H18.4634ZM22.5259 19V10.008H24.3659V17.368H26.9579V19H22.5259ZM28.1509 19V10.008H30.0069V19H28.1509ZM36.2614 19L33.8454 12.792H33.8134L33.8934 19H32.2134V10.008H34.3254L36.7094 16.248H36.7414L36.6614 10.008H38.3414V19H36.2614ZM46.2531 18.408C45.9331 18.6533 45.5651 18.8507 45.1491 19C44.7438 19.1493 44.2691 19.224 43.7251 19.224C43.1491 19.224 42.6318 19.1067 42.1731 18.872C41.7251 18.6373 41.3465 18.312 41.0371 17.896C40.7278 17.48 40.4878 16.984 40.3171 16.408C40.1571 15.8213 40.0771 15.1813 40.0771 14.488C40.0771 13.816 40.1571 13.192 40.3171 12.616C40.4771 12.04 40.7065 11.544 41.0051 11.128C41.3145 10.7013 41.6878 10.3707 42.1251 10.136C42.5625 9.90133 43.0585 9.784 43.6131 9.784C44.7331 9.784 45.5918 10.1787 46.1891 10.968L45.0691 12.232C44.8558 11.944 44.6265 11.7413 44.3811 11.624C44.1465 11.5067 43.9011 11.448 43.6451 11.448C43.3571 11.448 43.1065 11.528 42.8931 11.688C42.6798 11.8373 42.4985 12.0507 42.3491 12.328C42.2105 12.5947 42.1038 12.9147 42.0291 13.288C41.9545 13.6613 41.9171 14.0613 41.9171 14.488C41.9171 14.936 41.9545 15.352 42.0291 15.736C42.1145 16.1093 42.2318 16.4347 42.3811 16.712C42.5305 16.9787 42.7171 17.192 42.9411 17.352C43.1758 17.5013 43.4371 17.576 43.7251 17.576C44.0878 17.576 44.3598 17.5173 44.5411 17.4V15.352H43.4051V13.72H46.2531V18.408ZM54.2283 15.752C54.2283 16.2213 54.1749 16.6693 54.0683 17.096C53.9616 17.512 53.7856 17.88 53.5403 18.2C53.2949 18.5093 52.9749 18.76 52.5803 18.952C52.1963 19.1333 51.7216 19.224 51.1562 19.224C50.6016 19.224 50.1323 19.1333 49.7483 18.952C49.3643 18.76 49.0549 18.5093 48.8203 18.2C48.5856 17.88 48.4149 17.512 48.3083 17.096C48.2016 16.6693 48.1483 16.2213 48.1483 15.752V10.008H49.9723V15.64C49.9723 16.1947 50.0576 16.648 50.2283 17C50.4096 17.3413 50.7189 17.512 51.1562 17.512C51.6256 17.512 51.9509 17.3413 52.1323 17C52.3136 16.648 52.4043 16.1947 52.4043 15.64V10.008H54.2283V15.752ZM60.149 19L59.717 17.208H57.413L56.997 19H55.205L57.477 10.008H59.733L61.957 19H60.149ZM58.581 11.704H58.549L57.701 15.736H59.429L58.581 11.704ZM63.1353 19V10.008H64.9753V17.368H67.5673V19H63.1353ZM69.0643 21.096H68.2003L69.1283 17.128H70.1843L69.0643 21.096ZM79.7858 18.44C79.5191 18.6747 79.2098 18.8613 78.8578 19C78.5058 19.1493 78.0898 19.224 77.6098 19.224C77.0978 19.224 76.6391 19.112 76.2338 18.888C75.8391 18.664 75.5031 18.3493 75.2258 17.944C74.9484 17.5387 74.7351 17.0533 74.5858 16.488C74.4471 15.912 74.3778 15.2773 74.3778 14.584C74.3778 13.9333 74.4418 13.3307 74.5698 12.776C74.7084 12.2107 74.9111 11.72 75.1778 11.304C75.4444 10.888 75.7698 10.5627 76.1538 10.328C76.5484 10.0933 76.9964 9.976 77.4978 9.976C77.9458 9.976 78.3564 10.0667 78.7298 10.248C79.1138 10.4187 79.4444 10.7173 79.7218 11.144L79.0018 11.864C78.7884 11.5333 78.5538 11.2987 78.2977 11.16C78.0524 11.0213 77.7964 10.952 77.5298 10.952C77.1991 10.952 76.9058 11.048 76.6498 11.24C76.3938 11.4213 76.1804 11.6773 76.0098 12.008C75.8391 12.328 75.7111 12.712 75.6258 13.16C75.5404 13.5973 75.4978 14.072 75.4978 14.584C75.4978 15.128 75.5458 15.624 75.6418 16.072C75.7378 16.52 75.8764 16.9093 76.0578 17.24C76.2391 17.56 76.4578 17.8107 76.7138 17.992C76.9804 18.1627 77.2844 18.248 77.6258 18.248C78.0951 18.248 78.4684 18.136 78.7458 17.912V15.112H77.4818V14.168H79.7858V18.44ZM82.0918 19V10.2H83.1638V18.024H85.6758V19H82.0918ZM92.5191 14.6C92.5191 15.272 92.4498 15.896 92.3111 16.472C92.1831 17.0373 91.9911 17.5227 91.7351 17.928C91.4791 18.3333 91.1645 18.6533 90.7911 18.888C90.4178 19.112 89.9911 19.224 89.5111 19.224C89.0311 19.224 88.6045 19.112 88.2311 18.888C87.8578 18.6533 87.5378 18.3333 87.2711 17.928C87.0151 17.5227 86.8178 17.0373 86.6791 16.472C86.5511 15.896 86.4871 15.272 86.4871 14.6C86.4871 13.928 86.5511 13.3093 86.6791 12.744C86.8071 12.168 86.9991 11.6773 87.2551 11.272C87.5111 10.8667 87.8258 10.552 88.1991 10.328C88.5831 10.0933 89.0205 9.976 89.5111 9.976C89.9911 9.976 90.4178 10.0933 90.7911 10.328C91.1645 10.552 91.4791 10.8667 91.7351 11.272C91.9911 11.6773 92.1831 12.168 92.3111 12.744C92.4498 13.3093 92.5191 13.928 92.5191 14.6ZM91.3991 14.6C91.3991 14.0667 91.3565 13.576 91.2711 13.128C91.1858 12.6693 91.0631 12.28 90.9031 11.96C90.7431 11.6293 90.5458 11.3733 90.3111 11.192C90.0765 11 89.8098 10.904 89.5111 10.904C89.2018 10.904 88.9298 11 88.6951 11.192C88.4605 11.3733 88.2631 11.6293 88.1031 11.96C87.9431 12.28 87.8205 12.6693 87.7351 13.128C87.6498 13.576 87.6071 14.0667 87.6071 14.6C87.6071 15.1333 87.6498 15.624 87.7351 16.072C87.8205 16.5093 87.9431 16.8933 88.1031 17.224C88.2631 17.5547 88.4605 17.8107 88.6951 17.992C88.9298 18.1733 89.2018 18.264 89.5111 18.264C89.8098 18.264 90.0765 18.1733 90.3111 17.992C90.5458 17.8107 90.7431 17.5547 90.9031 17.224C91.0631 16.8933 91.1858 16.5093 91.2711 16.072C91.3565 15.624 91.3991 15.1333 91.3991 14.6ZM95.5689 11.112V13.96H96.5609C96.7315 13.96 96.8969 13.9333 97.0569 13.88C97.2275 13.8267 97.3769 13.7467 97.5049 13.64C97.6435 13.5227 97.7555 13.3733 97.8409 13.192C97.9262 13 97.9689 12.776 97.9689 12.52C97.9689 12.2533 97.9262 12.0293 97.8409 11.848C97.7662 11.6667 97.6595 11.5227 97.5209 11.416C97.3929 11.3093 97.2435 11.2347 97.0729 11.192C96.9022 11.1387 96.7262 11.112 96.5449 11.112H95.5689ZM95.5689 14.84V18.088H96.6889C97.1262 18.088 97.4889 17.9653 97.7769 17.72C98.0755 17.464 98.2249 17.0587 98.2249 16.504C98.2249 16.1947 98.1769 15.9333 98.0809 15.72C97.9849 15.5067 97.8622 15.336 97.7129 15.208C97.5635 15.08 97.3982 14.9893 97.2169 14.936C97.0355 14.872 96.8595 14.84 96.6889 14.84H95.5689ZM97.7609 14.344C97.9422 14.3973 98.1235 14.4827 98.3049 14.6C98.4862 14.7173 98.6462 14.8667 98.7849 15.048C98.9342 15.2187 99.0515 15.432 99.1369 15.688C99.2329 15.9333 99.2809 16.2213 99.2809 16.552C99.2809 17.0213 99.2062 17.4107 99.0569 17.72C98.9075 18.0293 98.7155 18.28 98.4809 18.472C98.2462 18.664 97.9849 18.8027 97.6969 18.888C97.4195 18.9627 97.1529 19 96.8969 19H94.5449V10.2H96.6249C96.8809 10.2 97.1422 10.232 97.4089 10.296C97.6862 10.36 97.9422 10.472 98.1769 10.632C98.4115 10.792 98.6035 11.016 98.7529 11.304C98.9022 11.5813 98.9769 11.9333 98.9769 12.36C98.9769 12.8933 98.8489 13.32 98.5929 13.64C98.3369 13.96 98.0595 14.184 97.7609 14.312V14.344ZM104.879 19L104.367 16.936H101.775L101.263 19H100.191L102.399 10.2H103.807L105.967 19H104.879ZM103.103 11.272H103.055L101.935 16.04H104.207L103.103 11.272ZM107.357 19V10.2H108.429V18.024H110.941V19H107.357Z" fill="#373E00"/>
</g>
<rect x="0.5" y="0.5" width="121" height="28" rx="14" stroke="#A2B700"/>
<defs>
<clipPath id="clip0_2_40">
<rect width="122" height="29" rx="14.5" fill="white"/>
</clipPath>
</defs>
</svg>
