<svg width="141" height="29" viewBox="0 0 141 29" fill="none" xmlns="http://www.w3.org/2000/svg">
<g clip-path="url(#clip0_2_34)">
<rect width="141" height="29" rx="14.5" fill="#FF9393"/>
<path d="M58.1598 28.2617C63.1944 28.3959 67.4234 29.5371 71.0483 32.2222C76.4185 36.1156 79.1036 41.4186 78.7679 48.1314C78.6337 50.6822 77.5597 52.8974 75.8815 54.777C72.995 58.0662 69.2359 59.6773 64.8726 60.2143C64.4698 60.2814 64.1342 60.2814 63.7314 60.2143C59.3681 59.4759 55.072 58.6704 51.1786 56.4552C46.144 53.4344 43.5261 48.9369 43.5932 43.0297C43.7274 36.2498 49.0305 29.8727 55.4747 28.5302C56.5488 28.3288 57.6228 28.3288 58.1598 28.2617ZM58.6297 35.5785C57.6899 35.7799 56.683 35.8471 55.8104 36.1827C51.7156 37.8609 49.836 43.2982 52.0512 47.1245C52.7896 48.467 53.9308 49.4739 55.2733 50.1452C57.8242 51.4206 60.5764 52.2261 63.3958 52.4947C64.7383 52.6289 66.2151 52.3604 67.4905 51.8234C70.5784 50.6151 71.8538 48.2656 71.1825 45.1778C70.5784 42.3584 69.1687 39.9418 66.7521 38.2636C64.4027 36.6526 61.6505 35.8471 58.6297 35.5785Z" fill="#FFB6B6"/>
<path d="M65.0084 12.1514C67.7607 12.4199 70.58 12.487 73.3322 12.8898C79.7093 13.8967 84.8782 17.1859 88.7715 22.2876C93.8732 28.8661 96.6255 36.3844 96.894 44.7753C97.0282 47.9974 96.3569 51.0853 95.0815 54.0389C93.8732 56.7911 92.3964 59.4091 90.4497 61.7585C83.9384 69.5453 76.0173 75.0498 65.7468 76.4594C58.8327 77.3992 51.9857 76.9965 45.4744 74.5799C40.9768 72.8346 36.8821 70.3508 33.2572 67.1959C32.0489 66.1218 31.042 64.7121 30.1693 63.3025C27.8199 59.3419 26.4102 54.9787 25.1348 50.6154C24.732 49.2728 24.7991 47.7289 24.7991 46.3192C24.7991 37.3242 28.0212 29.6716 34.734 23.563C42.3865 16.6489 51.3144 12.6884 61.7863 12.3527C62.8604 12.3527 63.9344 12.3527 65.0084 12.3527C65.0084 12.2856 65.0084 12.2185 65.0084 12.1514ZM64.8742 19.6696C56.0805 19.4011 48.2937 22.1534 41.4467 27.5907C38.6274 29.873 36.2108 32.491 34.5997 35.8473C30.9077 43.567 31.6461 51.0181 35.9423 58.2679C36.6135 59.4091 37.6205 60.3489 38.6945 61.1544C40.4398 62.4969 42.2522 63.7052 44.1318 64.8464C49.1664 67.9343 54.5366 69.6796 60.578 69.4111C72.2582 68.874 80.7834 63.3025 86.892 53.7032C87.6304 52.5621 88.1674 51.3538 88.5702 50.0784C89.0401 48.6687 89.3757 47.1248 89.4428 45.7151C89.4428 38.3982 87.0262 31.8868 82.4616 26.3153C79.508 22.7575 75.6817 20.6094 70.9828 20.1395C68.969 19.871 66.888 19.8039 64.8742 19.6696Z" fill="#FFB6B6"/>
<path d="M55.0031 92.0999C49.4316 92.0999 44.7998 91.3615 40.3694 89.549C37.4829 88.3408 34.8649 86.6626 32.5826 84.4474C29.4947 81.4266 26.2726 78.4059 23.1176 75.4523C22.8491 75.1838 22.5135 74.9824 22.245 74.7139C21.1709 73.707 19.8955 72.7672 19.0228 71.5589C14.5253 65.4503 11.1018 58.8047 10.2291 51.085C9.49075 44.5737 10.5648 38.3308 13.0485 32.3565C14.9952 27.5904 17.4789 23.16 20.7682 19.2666C24.1245 15.3061 27.9508 12.084 32.5154 9.6003C37.9528 6.78095 43.4572 4.09585 49.2302 1.94777C57.4868 -1.07296 66.0792 -2.28125 74.8728 -1.94562C78.095 -1.81136 81.1828 -1.07296 84.0022 0.47097C87.3585 2.28341 90.7149 4.16298 93.8028 6.31106C100.314 10.7415 104.275 17.1857 106.825 24.4355C110.45 34.7731 110.853 45.3792 107.967 55.9853C107.363 58.2006 106.557 60.4158 105.55 62.4296C100.851 71.6932 94.2055 79.1443 84.8077 83.9775C75.1414 88.9449 65.0051 91.63 55.0031 92.0999ZM54.8689 84.6488C64.0653 84.1117 73.2618 81.628 81.9212 77.1305C88.9696 73.4385 94.0042 67.7998 97.8975 61.0199C99.0387 59.0061 100.046 56.7909 100.65 54.5085C103.268 44.9764 102.932 35.4444 99.4415 26.1808C97.3605 20.6763 94.3398 15.776 89.3052 12.3525C86.6201 10.5401 83.7337 8.92903 80.8472 7.31797C78.632 6.10967 76.2154 5.57265 73.7317 5.50553C66.012 5.37127 58.4266 6.44531 51.1769 9.19753C46.0752 11.1442 41.1078 13.5608 36.2746 16.1117C32.5154 18.1255 29.3605 20.7435 26.6082 23.9656C23.856 27.1877 21.8422 30.8126 20.164 34.706C17.6132 40.6132 16.7405 46.6546 18.0831 52.9646C18.6872 55.784 19.4927 58.4019 21.7751 60.4829C22.8491 61.4898 23.6546 62.8323 24.4602 64.0406C25.1986 65.1147 25.8698 66.1887 26.474 67.3299C27.4809 69.0752 28.7563 70.552 30.2331 71.8945C32.5826 74.0426 34.9992 76.2578 37.2144 78.5402C39.5638 80.8896 42.3161 82.4335 45.4039 83.3733C48.3575 84.3131 51.3111 84.6488 54.8689 84.6488Z" fill="#FFB6B6"/>
<path d="M11.104 19V10.008H13.552C14.16 10.008 14.6933 10.1147 15.152 10.328C15.6213 10.5307 16.0053 10.8293 16.304 11.224C16.6133 11.608 16.8427 12.0827 16.992 12.648C17.152 13.2027 17.232 13.8267 17.232 14.52C17.232 15.9173 16.9227 17.016 16.304 17.816C15.6853 18.6053 14.7627 19 13.536 19H11.104ZM12.928 11.56V17.416H13.552C13.808 17.416 14.048 17.3573 14.272 17.24C14.496 17.1227 14.688 16.9467 14.848 16.712C15.0187 16.4667 15.152 16.1627 15.248 15.8C15.3547 15.4373 15.408 15.0053 15.408 14.504C15.408 13.992 15.3547 13.5547 15.248 13.192C15.152 12.8187 15.0187 12.5147 14.848 12.28C14.688 12.0347 14.496 11.8533 14.272 11.736C14.048 11.6187 13.808 11.56 13.552 11.56H12.928ZM18.9946 19V10.008H23.4266V11.608H20.8026V13.576H23.2346V15.112H20.8026V17.368H23.5706V19H18.9946ZM28.8111 12.088C28.6191 11.8427 28.4058 11.672 28.1711 11.576C27.9471 11.48 27.7231 11.432 27.4991 11.432C27.2538 11.432 27.0298 11.512 26.8271 11.672C26.6351 11.8213 26.5391 12.0827 26.5391 12.456C26.5391 12.7547 26.6351 13 26.8271 13.192C27.0298 13.3733 27.3178 13.5547 27.6911 13.736C27.9151 13.8427 28.1498 13.9707 28.3951 14.12C28.6405 14.2693 28.8645 14.4507 29.0671 14.664C29.2698 14.8667 29.4351 15.112 29.5631 15.4C29.7018 15.6773 29.7711 16.008 29.7711 16.392C29.7711 16.84 29.6965 17.24 29.5471 17.592C29.3978 17.944 29.1951 18.2427 28.9391 18.488C28.6831 18.7227 28.3845 18.904 28.0431 19.032C27.7125 19.16 27.3605 19.224 26.9871 19.224C26.4538 19.224 25.9578 19.1227 25.4991 18.92C25.0405 18.7067 24.6511 18.4293 24.3311 18.088L25.3871 16.744C25.6431 17.0213 25.9045 17.2293 26.1711 17.368C26.4485 17.496 26.7098 17.56 26.9551 17.56C27.2645 17.56 27.5045 17.4693 27.6751 17.288C27.8458 17.096 27.9311 16.8347 27.9311 16.504C27.9311 16.152 27.7978 15.8693 27.5311 15.656C27.2645 15.4427 26.9445 15.2453 26.5711 15.064C26.3471 14.9573 26.1231 14.84 25.8991 14.712C25.6858 14.5733 25.4938 14.408 25.3231 14.216C25.1525 14.024 25.0138 13.7947 24.9071 13.528C24.8005 13.2507 24.7471 12.92 24.7471 12.536C24.7471 12.056 24.8271 11.6453 24.9871 11.304C25.1471 10.952 25.3551 10.664 25.6111 10.44C25.8778 10.216 26.1711 10.0507 26.4911 9.944C26.8218 9.83733 27.1525 9.784 27.4831 9.784C27.9631 9.784 28.4058 9.864 28.8111 10.024C29.2271 10.184 29.5845 10.4347 29.8831 10.776L28.8111 12.088ZM31.354 19V10.008H33.21V19H31.354ZM41.1125 18.408C40.7925 18.6533 40.4245 18.8507 40.0085 19C39.6032 19.1493 39.1285 19.224 38.5845 19.224C38.0085 19.224 37.4912 19.1067 37.0325 18.872C36.5845 18.6373 36.2058 18.312 35.8965 17.896C35.5872 17.48 35.3472 16.984 35.1765 16.408C35.0165 15.8213 34.9365 15.1813 34.9365 14.488C34.9365 13.816 35.0165 13.192 35.1765 12.616C35.3365 12.04 35.5658 11.544 35.8645 11.128C36.1738 10.7013 36.5472 10.3707 36.9845 10.136C37.4218 9.90133 37.9178 9.784 38.4725 9.784C39.5925 9.784 40.4512 10.1787 41.0485 10.968L39.9285 12.232C39.7152 11.944 39.4858 11.7413 39.2405 11.624C39.0058 11.5067 38.7605 11.448 38.5045 11.448C38.2165 11.448 37.9658 11.528 37.7525 11.688C37.5392 11.8373 37.3578 12.0507 37.2085 12.328C37.0698 12.5947 36.9632 12.9147 36.8885 13.288C36.8138 13.6613 36.7765 14.0613 36.7765 14.488C36.7765 14.936 36.8138 15.352 36.8885 15.736C36.9738 16.1093 37.0912 16.4347 37.2405 16.712C37.3898 16.9787 37.5765 17.192 37.8005 17.352C38.0352 17.5013 38.2965 17.576 38.5845 17.576C38.9472 17.576 39.2192 17.5173 39.4005 17.4V15.352H38.2645V13.72H41.1125V18.408ZM47.1676 19L44.7516 12.792H44.7196L44.7996 19H43.1196V10.008H45.2316L47.6156 16.248H47.6476L47.5676 10.008H49.2476V19H47.1676ZM58.0924 12.088C57.9004 11.8427 57.687 11.672 57.4524 11.576C57.2284 11.48 57.0044 11.432 56.7804 11.432C56.535 11.432 56.311 11.512 56.1084 11.672C55.9164 11.8213 55.8204 12.0827 55.8204 12.456C55.8204 12.7547 55.9164 13 56.1084 13.192C56.311 13.3733 56.599 13.5547 56.9724 13.736C57.1964 13.8427 57.431 13.9707 57.6764 14.12C57.9217 14.2693 58.1457 14.4507 58.3484 14.664C58.551 14.8667 58.7164 15.112 58.8444 15.4C58.983 15.6773 59.0524 16.008 59.0524 16.392C59.0524 16.84 58.9777 17.24 58.8284 17.592C58.679 17.944 58.4764 18.2427 58.2204 18.488C57.9644 18.7227 57.6657 18.904 57.3244 19.032C56.9937 19.16 56.6417 19.224 56.2684 19.224C55.735 19.224 55.239 19.1227 54.7804 18.92C54.3217 18.7067 53.9324 18.4293 53.6124 18.088L54.6684 16.744C54.9244 17.0213 55.1857 17.2293 55.4524 17.368C55.7297 17.496 55.991 17.56 56.2364 17.56C56.5457 17.56 56.7857 17.4693 56.9564 17.288C57.127 17.096 57.2124 16.8347 57.2124 16.504C57.2124 16.152 57.079 15.8693 56.8124 15.656C56.5457 15.4427 56.2257 15.2453 55.8524 15.064C55.6284 14.9573 55.4044 14.84 55.1804 14.712C54.967 14.5733 54.775 14.408 54.6044 14.216C54.4337 14.024 54.295 13.7947 54.1884 13.528C54.0817 13.2507 54.0284 12.92 54.0284 12.536C54.0284 12.056 54.1084 11.6453 54.2684 11.304C54.4284 10.952 54.6364 10.664 54.8924 10.44C55.159 10.216 55.4524 10.0507 55.7724 9.944C56.103 9.83733 56.4337 9.784 56.7644 9.784C57.2444 9.784 57.687 9.864 58.0924 10.024C58.5084 10.184 58.8657 10.4347 59.1644 10.776L58.0924 12.088ZM63.8513 10.008H65.8193L63.4513 15.544V19H61.6113V15.544L59.2752 10.008H61.2593L62.5553 13.8L63.8513 10.008ZM70.1705 12.088C69.9785 11.8427 69.7652 11.672 69.5305 11.576C69.3065 11.48 69.0825 11.432 68.8585 11.432C68.6132 11.432 68.3892 11.512 68.1865 11.672C67.9945 11.8213 67.8985 12.0827 67.8985 12.456C67.8985 12.7547 67.9945 13 68.1865 13.192C68.3892 13.3733 68.6772 13.5547 69.0505 13.736C69.2745 13.8427 69.5092 13.9707 69.7545 14.12C69.9998 14.2693 70.2238 14.4507 70.4265 14.664C70.6292 14.8667 70.7945 15.112 70.9225 15.4C71.0612 15.6773 71.1305 16.008 71.1305 16.392C71.1305 16.84 71.0558 17.24 70.9065 17.592C70.7572 17.944 70.5545 18.2427 70.2985 18.488C70.0425 18.7227 69.7438 18.904 69.4025 19.032C69.0718 19.16 68.7198 19.224 68.3465 19.224C67.8132 19.224 67.3172 19.1227 66.8585 18.92C66.3998 18.7067 66.0105 18.4293 65.6905 18.088L66.7465 16.744C67.0025 17.0213 67.2638 17.2293 67.5305 17.368C67.8078 17.496 68.0692 17.56 68.3145 17.56C68.6238 17.56 68.8638 17.4693 69.0345 17.288C69.2052 17.096 69.2905 16.8347 69.2905 16.504C69.2905 16.152 69.1572 15.8693 68.8905 15.656C68.6238 15.4427 68.3038 15.2453 67.9305 15.064C67.7065 14.9573 67.4825 14.84 67.2585 14.712C67.0452 14.5733 66.8532 14.408 66.6825 14.216C66.5118 14.024 66.3732 13.7947 66.2665 13.528C66.1598 13.2507 66.1065 12.92 66.1065 12.536C66.1065 12.056 66.1865 11.6453 66.3465 11.304C66.5065 10.952 66.7145 10.664 66.9705 10.44C67.2372 10.216 67.5305 10.0507 67.8505 9.944C68.1812 9.83733 68.5118 9.784 68.8425 9.784C69.3225 9.784 69.7652 9.864 70.1705 10.024C70.5865 10.184 70.9438 10.4347 71.2425 10.776L70.1705 12.088ZM75.1774 11.608V19H73.3694V11.608H71.6414V10.008H76.9374V11.608H75.1774ZM78.0728 19V10.008H82.5048V11.608H79.8808V13.576H82.3128V15.112H79.8808V17.368H82.6488V19H78.0728ZM90.9613 19L91.0413 12.296H90.9933L89.2173 19H87.7933L86.0653 12.296H86.0173L86.0973 19H84.3853V10.008H87.0093L88.5293 16.264H88.5773L90.0013 10.008H92.7213V19H90.9613ZM98.4361 12.088C98.2441 11.8427 98.0308 11.672 97.7961 11.576C97.5721 11.48 97.3481 11.432 97.1241 11.432C96.8788 11.432 96.6548 11.512 96.4521 11.672C96.2601 11.8213 96.1641 12.0827 96.1641 12.456C96.1641 12.7547 96.2601 13 96.4521 13.192C96.6548 13.3733 96.9428 13.5547 97.3161 13.736C97.5401 13.8427 97.7748 13.9707 98.0201 14.12C98.2655 14.2693 98.4895 14.4507 98.6921 14.664C98.8948 14.8667 99.0601 15.112 99.1881 15.4C99.3268 15.6773 99.3961 16.008 99.3961 16.392C99.3961 16.84 99.3215 17.24 99.1721 17.592C99.0228 17.944 98.8201 18.2427 98.5641 18.488C98.3081 18.7227 98.0095 18.904 97.6681 19.032C97.3375 19.16 96.9855 19.224 96.6121 19.224C96.0788 19.224 95.5828 19.1227 95.1241 18.92C94.6655 18.7067 94.2761 18.4293 93.9561 18.088L95.0121 16.744C95.2681 17.0213 95.5295 17.2293 95.7961 17.368C96.0735 17.496 96.3348 17.56 96.5801 17.56C96.8895 17.56 97.1295 17.4693 97.3001 17.288C97.4708 17.096 97.5561 16.8347 97.5561 16.504C97.5561 16.152 97.4228 15.8693 97.1561 15.656C96.8895 15.4427 96.5695 15.2453 96.1961 15.064C95.9721 14.9573 95.7481 14.84 95.5241 14.712C95.3108 14.5733 95.1188 14.408 94.9481 14.216C94.7775 14.024 94.6388 13.7947 94.5321 13.528C94.4255 13.2507 94.3721 12.92 94.3721 12.536C94.3721 12.056 94.4521 11.6453 94.6121 11.304C94.7721 10.952 94.9801 10.664 95.2361 10.44C95.5028 10.216 95.7961 10.0507 96.1161 9.944C96.4468 9.83733 96.7775 9.784 97.1081 9.784C97.5881 9.784 98.0308 9.864 98.4361 10.024C98.8521 10.184 99.2095 10.4347 99.5081 10.776L98.4361 12.088ZM107.98 19L105.164 12.008H105.116V19H104.076V10.2H105.452L108.252 17.24H108.284V10.2H109.292V19H107.98ZM111.795 19V10.2H115.571V11.16H112.851V13.992H115.395V14.904H112.851V18.04H115.683V19H111.795ZM121.271 19L119.639 15.016H118.679V19H117.607V10.2H119.831C120.13 10.2 120.423 10.2427 120.711 10.328C120.999 10.4027 121.255 10.536 121.479 10.728C121.703 10.9093 121.879 11.1547 122.007 11.464C122.146 11.7627 122.215 12.1307 122.215 12.568C122.215 12.9307 122.167 13.2453 122.071 13.512C121.975 13.7787 121.853 14.0027 121.703 14.184C121.554 14.3653 121.383 14.5093 121.191 14.616C121.01 14.7227 120.834 14.7973 120.663 14.84L122.423 19H121.271ZM121.143 12.616C121.143 12.328 121.101 12.088 121.015 11.896C120.93 11.704 120.818 11.5547 120.679 11.448C120.551 11.3307 120.397 11.2507 120.215 11.208C120.045 11.1547 119.869 11.128 119.687 11.128H118.679V14.136H119.719C120.157 14.136 120.503 14.008 120.759 13.752C121.015 13.496 121.143 13.1173 121.143 12.616ZM129.451 14.616C129.451 16.0453 129.152 17.1333 128.555 17.88C127.957 18.6267 127.147 19 126.123 19H124.139V10.2H126.139C127.163 10.2 127.968 10.5787 128.555 11.336C129.152 12.0933 129.451 13.1867 129.451 14.616ZM128.363 14.616C128.363 14.008 128.304 13.4907 128.187 13.064C128.069 12.6267 127.909 12.2693 127.707 11.992C127.504 11.704 127.264 11.496 126.987 11.368C126.709 11.2293 126.416 11.16 126.107 11.16H125.211V18.056H126.107C126.416 18.056 126.709 17.992 126.987 17.864C127.264 17.7253 127.504 17.5173 127.707 17.24C127.909 16.952 128.069 16.5947 128.187 16.168C128.304 15.7307 128.363 15.2133 128.363 14.616Z" fill="#4E0100"/>
</g>
<rect x="0.5" y="0.5" width="140" height="28" rx="14" stroke="#A52422"/>
<defs>
<clipPath id="clip0_2_34">
<rect width="141" height="29" rx="14.5" fill="white"/>
</clipPath>
</defs>
</svg>
