<svg width="124" height="29" viewBox="0 0 124 29" fill="none" xmlns="http://www.w3.org/2000/svg">
<g clip-path="url(#clip0_1_6)">
<rect width="124" height="29" rx="14.5" fill="#CDB0ED"/>
<path d="M118.16 20.2617C123.194 20.3959 127.423 21.5371 131.048 24.2222C136.419 28.1156 139.104 33.4186 138.768 40.1314C138.634 42.6822 137.56 44.8974 135.881 46.777C132.995 50.0662 129.236 51.6773 124.873 52.2143C124.47 52.2814 124.134 52.2814 123.731 52.2143C119.368 51.4759 115.072 50.6704 111.179 48.4552C106.144 45.4344 103.526 40.9369 103.593 35.0297C103.727 28.2498 109.031 21.8727 115.475 20.5302C116.549 20.3288 117.623 20.3288 118.16 20.2617ZM118.63 27.5785C117.69 27.7799 116.683 27.8471 115.81 28.1827C111.716 29.8609 109.836 35.2982 112.051 39.1245C112.79 40.467 113.931 41.4739 115.273 42.1452C117.824 43.4206 120.576 44.2261 123.396 44.4947C124.738 44.6289 126.215 44.3604 127.491 43.8234C130.578 42.6151 131.854 40.2656 131.183 37.1778C130.578 34.3584 129.169 31.9418 126.752 30.2636C124.403 28.6526 121.65 27.8471 118.63 27.5785Z" fill="#E4DBFF"/>
<path d="M125.008 4.15137C127.761 4.41988 130.58 4.487 133.332 4.88977C139.709 5.89668 144.878 9.18592 148.772 14.2876C153.873 20.8661 156.625 28.3844 156.894 36.7753C157.028 39.9974 156.357 43.0853 155.082 46.0389C153.873 48.7911 152.396 51.4091 150.45 53.7585C143.938 61.5453 136.017 67.0498 125.747 68.4594C118.833 69.3992 111.986 68.9965 105.474 66.5799C100.977 64.8346 96.8821 62.3508 93.2572 59.1959C92.0489 58.1218 91.042 56.7121 90.1693 55.3025C87.8199 51.3419 86.4102 46.9787 85.1348 42.6154C84.732 41.2728 84.7991 39.7289 84.7991 38.3192C84.7991 29.3242 88.0212 21.6716 94.734 15.563C102.387 8.6489 111.314 4.68839 121.786 4.35275C122.86 4.35275 123.934 4.35275 125.008 4.35275C125.008 4.28562 125.008 4.21849 125.008 4.15137ZM124.874 11.6696C116.08 11.4011 108.294 14.1534 101.447 19.5907C98.6274 21.873 96.2108 24.491 94.5997 27.8473C90.9077 35.567 91.6461 43.0181 95.9423 50.2679C96.6135 51.4091 97.6205 52.3489 98.6945 53.1544C100.44 54.4969 102.252 55.7052 104.132 56.8464C109.166 59.9343 114.537 61.6796 120.578 61.4111C132.258 60.874 140.783 55.3025 146.892 45.7032C147.63 44.5621 148.167 43.3538 148.57 42.0784C149.04 40.6687 149.376 39.1248 149.443 37.7151C149.443 30.3982 147.026 23.8868 142.462 18.3153C139.508 14.7575 135.682 12.6094 130.983 12.1395C128.969 11.871 126.888 11.8039 124.874 11.6696Z" fill="#E4DBFF"/>
<path d="M115.003 84.0999C109.432 84.0999 104.8 83.3615 100.369 81.549C97.4829 80.3408 94.8649 78.6626 92.5826 76.4474C89.4947 73.4266 86.2726 70.4059 83.1176 67.4523C82.8491 67.1838 82.5135 66.9824 82.245 66.7139C81.1709 65.707 79.8955 64.7672 79.0228 63.5589C74.5253 57.4503 71.1018 50.8047 70.2291 43.085C69.4907 36.5737 70.5648 30.3308 73.0485 24.3565C74.9952 19.5904 77.4789 15.16 80.7682 11.2666C84.1245 7.30613 87.9508 4.08401 92.5154 1.6003C97.9528 -1.21905 103.457 -3.90415 109.23 -6.05223C117.487 -9.07296 126.079 -10.2813 134.873 -9.94562C138.095 -9.81136 141.183 -9.07296 144.002 -7.52903C147.359 -5.71659 150.715 -3.83702 153.803 -1.68894C160.314 2.74147 164.275 9.1857 166.825 16.4355C170.45 26.7731 170.853 37.3792 167.967 47.9853C167.363 50.2006 166.557 52.4158 165.55 54.4296C160.851 63.6932 154.206 71.1443 144.808 75.9775C135.141 80.9449 125.005 83.63 115.003 84.0999ZM114.869 76.6488C124.065 76.1117 133.262 73.628 141.921 69.1305C148.97 65.4385 154.004 59.7998 157.898 53.0199C159.039 51.0061 160.046 48.7909 160.65 46.5085C163.268 36.9764 162.932 27.4444 159.441 18.1808C157.361 12.6763 154.34 7.77602 149.305 4.35252C146.62 2.54008 143.734 0.929026 140.847 -0.682033C138.632 -1.89033 136.215 -2.42735 133.732 -2.49447C126.012 -2.62873 118.427 -1.55469 111.177 1.19753C106.075 3.14423 101.108 5.56082 96.2746 8.11166C92.5154 10.1255 89.3605 12.7435 86.6082 15.9656C83.856 19.1877 81.8422 22.8126 80.164 26.706C77.6132 32.6132 76.7405 38.6546 78.0831 44.9646C78.6872 47.784 79.4927 50.4019 81.7751 52.4829C82.8491 53.4898 83.6546 54.8323 84.4602 56.0406C85.1986 57.1147 85.8698 58.1887 86.474 59.3299C87.4809 61.0752 88.7563 62.552 90.2331 63.8945C92.5826 66.0426 94.9992 68.2578 97.2144 70.5402C99.5638 72.8896 102.316 74.4335 105.404 75.3733C108.358 76.3131 111.311 76.6488 114.869 76.6488Z" fill="#E4DBFF"/>
<path d="M16.4 16.424C16.4 16.84 16.3307 17.2187 16.192 17.56C16.0533 17.9013 15.856 18.1947 15.6 18.44C15.3547 18.6853 15.056 18.8773 14.704 19.016C14.352 19.1547 13.968 19.224 13.552 19.224C12.7947 19.224 12.1547 19.0373 11.632 18.664C11.12 18.28 10.7733 17.72 10.592 16.984L12.32 16.568C12.4053 16.9093 12.5493 17.176 12.752 17.368C12.9547 17.5493 13.2107 17.64 13.52 17.64C13.8933 17.64 14.16 17.5067 14.32 17.24C14.4907 16.9733 14.576 16.68 14.576 16.36C14.576 15.944 14.4533 15.6293 14.208 15.416C13.9733 15.192 13.6533 15.08 13.248 15.08H12.656V13.608H13.296C14.0213 13.608 14.384 13.2027 14.384 12.392C14.384 12.1253 14.3147 11.8907 14.176 11.688C14.0373 11.4747 13.8133 11.368 13.504 11.368C13.2907 11.368 13.0987 11.4373 12.928 11.576C12.768 11.7147 12.64 11.9333 12.544 12.232L10.848 11.832C11.0827 11.1067 11.4507 10.584 11.952 10.264C12.4533 9.944 12.9973 9.784 13.584 9.784C13.9467 9.784 14.2827 9.83733 14.592 9.944C14.912 10.0507 15.1893 10.2107 15.424 10.424C15.6587 10.6267 15.8453 10.8827 15.984 11.192C16.1227 11.4907 16.192 11.8373 16.192 12.232C16.192 12.68 16.0907 13.0907 15.888 13.464C15.696 13.8267 15.4027 14.0827 15.008 14.232V14.296C15.488 14.4453 15.84 14.712 16.064 15.096C16.288 15.48 16.4 15.9227 16.4 16.424ZM23.7133 12.44C23.7133 12.728 23.6759 13 23.6013 13.256C23.5266 13.512 23.4199 13.7573 23.2813 13.992C23.1533 14.2267 22.9986 14.456 22.8173 14.68C22.6466 14.8933 22.4653 15.112 22.2733 15.336L20.4813 17.368H23.6013V19H18.2893V17.416L21.0413 14.232C21.3079 13.9227 21.5106 13.624 21.6493 13.336C21.7879 13.048 21.8573 12.7547 21.8573 12.456C21.8573 12.1467 21.7773 11.896 21.6173 11.704C21.4679 11.512 21.2546 11.416 20.9773 11.416C20.7106 11.416 20.4813 11.512 20.2893 11.704C20.1079 11.896 19.9906 12.2267 19.9373 12.696L18.1933 12.536C18.3106 11.5973 18.6146 10.904 19.1053 10.456C19.6066 10.008 20.2626 9.784 21.0733 9.784C21.9373 9.784 22.5933 10.0347 23.0413 10.536C23.4893 11.0373 23.7133 11.672 23.7133 12.44ZM30.8665 16.072C30.8665 16.584 30.7918 17.0373 30.6425 17.432C30.5038 17.8267 30.3065 18.1573 30.0505 18.424C29.7945 18.68 29.4905 18.8773 29.1385 19.016C28.7972 19.1547 28.4238 19.224 28.0185 19.224C27.2932 19.224 26.6852 19.032 26.1945 18.648C25.7145 18.264 25.3838 17.72 25.2025 17.016L26.8505 16.52C26.9358 16.8827 27.0798 17.1547 27.2825 17.336C27.4958 17.5173 27.7305 17.608 27.9865 17.608C28.2852 17.608 28.5358 17.4853 28.7385 17.24C28.9412 16.9947 29.0425 16.632 29.0425 16.152C29.0425 15.672 28.9358 15.2987 28.7225 15.032C28.5092 14.7547 28.1785 14.616 27.7305 14.616C27.4638 14.616 27.1598 14.6587 26.8185 14.744C26.4878 14.8293 26.1465 14.9467 25.7945 15.096L25.9705 10.008H30.5465V11.608H27.6025L27.5385 13.256C27.6665 13.2133 27.7892 13.1867 27.9065 13.176C28.0238 13.1653 28.1305 13.16 28.2265 13.16C28.6532 13.16 29.0318 13.2347 29.3625 13.384C29.6932 13.5227 29.9705 13.72 30.1945 13.976C30.4185 14.232 30.5838 14.5413 30.6905 14.904C30.8078 15.256 30.8665 15.6453 30.8665 16.072ZM41.3569 14.616C41.3569 16.0453 41.0582 17.1333 40.4609 17.88C39.8635 18.6267 39.0529 19 38.0289 19H36.0449V10.2H38.0449C39.0689 10.2 39.8742 10.5787 40.4609 11.336C41.0582 12.0933 41.3569 13.1867 41.3569 14.616ZM40.2689 14.616C40.2689 14.008 40.2102 13.4907 40.0929 13.064C39.9755 12.6267 39.8155 12.2693 39.6129 11.992C39.4102 11.704 39.1702 11.496 38.8929 11.368C38.6155 11.2293 38.3222 11.16 38.0129 11.16H37.1169V18.056H38.0129C38.3222 18.056 38.6155 17.992 38.8929 17.864C39.1702 17.7253 39.4102 17.5173 39.6129 17.24C39.8155 16.952 39.9755 16.5947 40.0929 16.168C40.2102 15.7307 40.2689 15.2133 40.2689 14.616ZM43.3886 19V10.2H47.1646V11.16H44.4446V13.992H46.9886V14.904H44.4446V18.04H47.2766V19H43.3886ZM50.6571 19.16C50.2091 19.16 49.7878 19.064 49.3931 18.872C48.9985 18.68 48.6678 18.408 48.4011 18.056L49.0571 17.32C49.2811 17.6187 49.5318 17.8427 49.8091 17.992C50.0865 18.1307 50.3638 18.2 50.6411 18.2C51.0038 18.2 51.3078 18.072 51.5531 17.816C51.8091 17.56 51.9371 17.192 51.9371 16.712C51.9371 16.4773 51.8945 16.2747 51.8091 16.104C51.7345 15.9333 51.6331 15.784 51.5051 15.656C51.3771 15.5173 51.2278 15.3947 51.0571 15.288C50.8865 15.1813 50.7105 15.08 50.5291 14.984C50.3051 14.8667 50.0811 14.744 49.8571 14.616C49.6438 14.4773 49.4465 14.312 49.2651 14.12C49.0945 13.928 48.9558 13.704 48.8491 13.448C48.7425 13.1813 48.6891 12.8613 48.6891 12.488C48.6891 12.0827 48.7531 11.7253 48.8811 11.416C49.0091 11.1067 49.1798 10.8507 49.3931 10.648C49.6065 10.4453 49.8518 10.296 50.1291 10.2C50.4065 10.0933 50.6945 10.04 50.9931 10.04C51.3878 10.04 51.7505 10.1093 52.0811 10.248C52.4225 10.3867 52.7158 10.6267 52.9611 10.968L52.3051 11.688C52.1131 11.432 51.9105 11.2507 51.6971 11.144C51.4838 11.0373 51.2545 10.984 51.0091 10.984C50.6891 10.984 50.3905 11.1013 50.1131 11.336C49.8465 11.5707 49.7131 11.9493 49.7131 12.472C49.7131 12.9093 49.8411 13.2507 50.0971 13.496C50.3531 13.7413 50.6678 13.9493 51.0411 14.12C51.2758 14.2373 51.5051 14.3707 51.7291 14.52C51.9638 14.6587 52.1718 14.8293 52.3531 15.032C52.5345 15.224 52.6785 15.4533 52.7851 15.72C52.9025 15.9867 52.9611 16.3013 52.9611 16.664C52.9611 17.048 52.8971 17.3947 52.7691 17.704C52.6518 18.0133 52.4865 18.28 52.2731 18.504C52.0705 18.7173 51.8305 18.8827 51.5531 19C51.2758 19.1067 50.9771 19.16 50.6571 19.16ZM54.8574 19V10.2H55.9294V19H54.8574ZM63.3639 18.44C63.0972 18.6747 62.7879 18.8613 62.4359 19C62.0839 19.1493 61.6679 19.224 61.1879 19.224C60.6759 19.224 60.2172 19.112 59.8119 18.888C59.4172 18.664 59.0812 18.3493 58.8039 17.944C58.5265 17.5387 58.3132 17.0533 58.1639 16.488C58.0252 15.912 57.9559 15.2773 57.9559 14.584C57.9559 13.9333 58.0199 13.3307 58.1479 12.776C58.2865 12.2107 58.4892 11.72 58.7559 11.304C59.0225 10.888 59.3479 10.5627 59.7319 10.328C60.1265 10.0933 60.5745 9.976 61.0759 9.976C61.5239 9.976 61.9345 10.0667 62.3079 10.248C62.6919 10.4187 63.0225 10.7173 63.2999 11.144L62.5799 11.864C62.3665 11.5333 62.1319 11.2987 61.8759 11.16C61.6305 11.0213 61.3745 10.952 61.1079 10.952C60.7772 10.952 60.4839 11.048 60.2279 11.24C59.9719 11.4213 59.7585 11.6773 59.5879 12.008C59.4172 12.328 59.2892 12.712 59.2039 13.16C59.1185 13.5973 59.0759 14.072 59.0759 14.584C59.0759 15.128 59.1239 15.624 59.2199 16.072C59.3159 16.52 59.4545 16.9093 59.6359 17.24C59.8172 17.56 60.0359 17.8107 60.2919 17.992C60.5585 18.1627 60.8625 18.248 61.2039 18.248C61.6732 18.248 62.0465 18.136 62.3239 17.912V15.112H61.0599V14.168H63.3639V18.44ZM69.5739 19L66.7579 12.008H66.7099V19H65.6699V10.2H67.0459L69.8459 17.24H69.8779V10.2H70.8859V19H69.5739ZM81.7018 12.76C81.7018 13.24 81.6271 13.656 81.4778 14.008C81.3284 14.36 81.1258 14.6533 80.8698 14.888C80.6244 15.112 80.3364 15.2827 80.0058 15.4C79.6858 15.5173 79.3551 15.576 79.0138 15.576H78.0218V19H76.1978V10.008H78.9498C79.2698 10.008 79.5898 10.056 79.9098 10.152C80.2404 10.2373 80.5338 10.3867 80.7898 10.6C81.0564 10.8133 81.2751 11.096 81.4458 11.448C81.6164 11.8 81.7018 12.2373 81.7018 12.76ZM79.9098 12.792C79.9098 12.3653 79.8084 12.0613 79.6058 11.88C79.4138 11.6987 79.1684 11.608 78.8698 11.608H78.0218V14.024H78.8698C79.1578 14.024 79.4031 13.9227 79.6058 13.72C79.8084 13.5173 79.9098 13.208 79.9098 12.792ZM86.6803 19L86.2483 17.208H83.9443L83.5283 19H81.7363L84.0082 10.008H86.2643L88.4883 19H86.6803ZM85.1123 11.704H85.0803L84.2323 15.736H85.9603L85.1123 11.704ZM91.943 11.608V19H90.135V11.608H88.407V10.008H93.703V11.608H91.943ZM94.8384 19V10.008H99.2704V11.608H96.6464V13.576H99.0784V15.112H96.6464V17.368H99.4144V19H94.8384ZM105.199 19L102.783 12.792H102.751L102.831 19H101.151V10.008H103.263L105.647 16.248H105.679L105.599 10.008H107.279V19H105.199ZM111.959 11.608V19H110.151V11.608H108.423V10.008H113.719V11.608H111.959Z" fill="#1D1633"/>
</g>
<rect x="0.5" y="0.5" width="123" height="28" rx="14" stroke="#A479D4"/>
<defs>
<clipPath id="clip0_1_6">
<rect width="124" height="29" rx="14.5" fill="white"/>
</clipPath>
</defs>
</svg>
