<svg width="110" height="29" viewBox="0 0 110 29" fill="none" xmlns="http://www.w3.org/2000/svg">
<g clip-path="url(#clip0_2_52)">
<rect width="110" height="29" rx="14.5" fill="#FFE37D"/>
<path d="M145.008 -17.8486C147.761 -17.5801 150.58 -17.513 153.332 -17.1102C159.709 -16.1033 164.878 -12.8141 168.772 -7.71239C173.873 -1.13391 176.625 6.38436 176.894 14.7753C177.028 17.9974 176.357 21.0853 175.082 24.0389C173.873 26.7911 172.396 29.4091 170.45 31.7585C163.938 39.5453 156.017 45.0498 145.747 46.4594C138.833 47.3992 131.986 46.9965 125.474 44.5799C120.977 42.8346 116.882 40.3508 113.257 37.1959C112.049 36.1218 111.042 34.7121 110.169 33.3025C107.82 29.3419 106.41 24.9787 105.135 20.6154C104.732 19.2728 104.799 17.7289 104.799 16.3192C104.799 7.32415 108.021 -0.328376 114.734 -6.43697C122.387 -13.3511 131.314 -17.3116 141.786 -17.6473C142.86 -17.6473 143.934 -17.6473 145.008 -17.6473C145.008 -17.7144 145.008 -17.7815 145.008 -17.8486ZM144.874 -10.3304C136.08 -10.5989 128.294 -7.84665 121.447 -2.40933C118.627 -0.126994 116.211 2.49097 114.6 5.84735C110.908 13.567 111.646 21.0181 115.942 28.2679C116.614 29.4091 117.62 30.3489 118.694 31.1544C120.44 32.4969 122.252 33.7052 124.132 34.8464C129.166 37.9343 134.537 39.6796 140.578 39.4111C152.258 38.874 160.783 33.3025 166.892 23.7032C167.63 22.5621 168.167 21.3538 168.57 20.0784C169.04 18.6687 169.376 17.1248 169.443 15.7151C169.443 8.39819 167.026 1.88683 162.462 -3.68475C159.508 -7.2425 155.682 -9.39058 150.983 -9.86047C148.969 -10.129 146.888 -10.1961 144.874 -10.3304Z" fill="#FFF5D0"/>
<path d="M135.003 62.0999C129.432 62.0999 124.8 61.3615 120.369 59.549C117.483 58.3408 114.865 56.6626 112.583 54.4474C109.495 51.4266 106.273 48.4059 103.118 45.4523C102.849 45.1838 102.513 44.9824 102.245 44.7139C101.171 43.707 99.8955 42.7672 99.0228 41.5589C94.5253 35.4503 91.1018 28.8047 90.2291 21.085C89.4907 14.5737 90.5648 8.33083 93.0485 2.35649C94.9952 -2.40955 97.4789 -6.83996 100.768 -10.7334C104.125 -14.6939 107.951 -17.916 112.515 -20.3997C117.953 -23.2191 123.457 -25.9041 129.23 -28.0522C137.487 -31.073 146.079 -32.2813 154.873 -31.9456C158.095 -31.8114 161.183 -31.073 164.002 -29.529C167.359 -27.7166 170.715 -25.837 173.803 -23.6889C180.314 -19.2585 184.275 -12.8143 186.825 -5.56454C190.45 4.77308 190.853 15.3792 187.967 25.9853C187.363 28.2006 186.557 30.4158 185.55 32.4296C180.851 41.6932 174.206 49.1443 164.808 53.9775C155.141 58.9449 145.005 61.63 135.003 62.0999ZM134.869 54.6488C144.065 54.1117 153.262 51.628 161.921 47.1305C168.97 43.4385 174.004 37.7998 177.898 31.0199C179.039 29.0061 180.046 26.7909 180.65 24.5085C183.268 14.9764 182.932 5.44436 179.441 -3.81923C177.361 -9.32368 174.34 -14.224 169.305 -17.6475C166.62 -19.4599 163.734 -21.071 160.847 -22.682C158.632 -23.8903 156.215 -24.4273 153.732 -24.4945C146.012 -24.6287 138.427 -23.5547 131.177 -20.8025C126.075 -18.8558 121.108 -16.4392 116.275 -13.8883C112.515 -11.8745 109.36 -9.25655 106.608 -6.03443C103.856 -2.81232 101.842 0.812565 100.164 4.70596C97.6132 10.6132 96.7405 16.6546 98.0831 22.9646C98.6872 25.784 99.4927 28.4019 101.775 30.4829C102.849 31.4898 103.655 32.8323 104.46 34.0406C105.199 35.1147 105.87 36.1887 106.474 37.3299C107.481 39.0752 108.756 40.552 110.233 41.8945C112.583 44.0426 114.999 46.2578 117.214 48.5402C119.564 50.8896 122.316 52.4335 125.404 53.3733C128.358 54.3131 131.311 54.6488 134.869 54.6488Z" fill="#FFF5D0"/>
<path d="M-13.8402 -1.73834C-8.80562 -1.60409 -4.57659 -0.462921 -0.951706 2.22218C4.41849 6.11557 7.10358 11.4186 6.76795 18.1314C6.63369 20.6822 5.55965 22.8974 3.88147 24.777C0.994987 28.0662 -2.76415 29.6773 -7.12743 30.2143C-7.53019 30.2814 -7.86583 30.2814 -8.2686 30.2143C-12.6319 29.4759 -16.928 28.6704 -20.8214 26.4552C-25.856 23.4344 -28.4739 18.9369 -28.4068 13.0297C-28.2726 6.24982 -22.9695 -0.127284 -16.5253 -1.46983C-15.4512 -1.67121 -14.3772 -1.67121 -13.8402 -1.73834ZM-13.3703 5.57855C-14.3101 5.77993 -15.317 5.84706 -16.1896 6.18269C-20.2844 7.86088 -22.164 13.2982 -19.9488 17.1245C-19.2104 18.467 -18.0692 19.4739 -16.7267 20.1452C-14.1758 21.4206 -11.4236 22.2261 -8.60423 22.4947C-7.26169 22.6289 -5.78488 22.3604 -4.50946 21.8234C-1.4216 20.6151 -0.146179 18.2656 -0.817453 15.1778C-1.4216 12.3584 -2.83127 9.94183 -5.24786 8.26364C-7.59732 6.65258 -10.3495 5.84706 -13.3703 5.57855Z" fill="#FFF5D0"/>
<path d="M-6.99156 -17.8486C-4.23933 -17.5801 -1.41998 -17.513 1.33224 -17.1102C7.70935 -16.1033 12.8782 -12.8141 16.7715 -7.71239C21.8732 -1.13391 24.6255 6.38436 24.894 14.7753C25.0282 17.9974 24.3569 21.0853 23.0815 24.0389C21.8732 26.7911 20.3964 29.4091 18.4497 31.7585C11.9384 39.5453 4.01734 45.0498 -6.25316 46.4594C-13.1673 47.3992 -20.0143 46.9965 -26.5256 44.5799C-31.0232 42.8346 -35.1179 40.3508 -38.7428 37.1959C-39.9511 36.1218 -40.958 34.7121 -41.8307 33.3025C-44.1801 29.3419 -45.5898 24.9787 -46.8652 20.6154C-47.268 19.2728 -47.2009 17.7289 -47.2009 16.3192C-47.2009 7.32415 -43.9788 -0.328376 -37.266 -6.43697C-29.6135 -13.3511 -20.6856 -17.3116 -10.2137 -17.6473C-9.13964 -17.6473 -8.0656 -17.6473 -6.99156 -17.6473C-6.99156 -17.7144 -6.99156 -17.7815 -6.99156 -17.8486ZM-7.12581 -10.3304C-15.9195 -10.5989 -23.7063 -7.84665 -30.5533 -2.40933C-33.3726 -0.126994 -35.7892 2.49097 -37.4003 5.84735C-41.0923 13.567 -40.3539 21.0181 -36.0577 28.2679C-35.3865 29.4091 -34.3795 30.3489 -33.3055 31.1544C-31.5602 32.4969 -29.7478 33.7052 -27.8682 34.8464C-22.8336 37.9343 -17.4634 39.6796 -11.422 39.4111C0.2582 38.874 8.78338 33.3025 14.892 23.7032C15.6304 22.5621 16.1674 21.3538 16.5702 20.0784C17.0401 18.6687 17.3757 17.1248 17.4428 15.7151C17.4428 8.39819 15.0262 1.88683 10.4616 -3.68475C7.50796 -7.2425 3.6817 -9.39058 -1.01722 -9.86047C-3.03104 -10.129 -5.11199 -10.1961 -7.12581 -10.3304Z" fill="#FFF5D0"/>
<path d="M-16.9969 62.0999C-22.5684 62.0999 -27.2002 61.3615 -31.6306 59.549C-34.5171 58.3408 -37.1351 56.6626 -39.4174 54.4474C-42.5053 51.4266 -45.7274 48.4059 -48.8824 45.4523C-49.1509 45.1838 -49.4865 44.9824 -49.755 44.7139C-50.8291 43.707 -52.1045 42.7672 -52.9772 41.5589C-57.4747 35.4503 -60.8982 28.8047 -61.7709 21.085C-62.5093 14.5737 -61.4352 8.33083 -58.9515 2.35649C-57.0048 -2.40955 -54.5211 -6.83996 -51.2318 -10.7334C-47.8755 -14.6939 -44.0492 -17.916 -39.4846 -20.3997C-34.0472 -23.2191 -28.5428 -25.9041 -22.7698 -28.0522C-14.5132 -31.073 -5.92084 -32.2813 2.87285 -31.9456C6.09496 -31.8114 9.18282 -31.073 12.0022 -29.529C15.3585 -27.7166 18.7149 -25.837 21.8028 -23.6889C28.3141 -19.2585 32.2747 -12.8143 34.8255 -5.56454C38.4504 4.77308 38.8531 15.3792 35.9667 25.9853C35.3625 28.2006 34.557 30.4158 33.5501 32.4296C28.8512 41.6932 22.2055 49.1443 12.8077 53.9775C3.14136 58.9449 -6.99488 61.63 -16.9969 62.0999ZM-17.1311 54.6488C-7.93466 54.1117 1.26179 51.628 9.92123 47.1305C16.9696 43.4385 22.0042 37.7998 25.8975 31.0199C27.0387 29.0061 28.0456 26.7909 28.6498 24.5085C31.2677 14.9764 30.9321 5.44436 27.4415 -3.81923C25.3605 -9.32368 22.3398 -14.224 17.3052 -17.6475C14.6201 -19.4599 11.7337 -21.071 8.84719 -22.682C6.63199 -23.8903 4.2154 -24.4273 1.73169 -24.4945C-5.98797 -24.6287 -13.5734 -23.5547 -20.8231 -20.8025C-25.9248 -18.8558 -30.8922 -16.4392 -35.7254 -13.8883C-39.4846 -11.8745 -42.6395 -9.25655 -45.3918 -6.03443C-48.144 -2.81232 -50.1578 0.812565 -51.836 4.70596C-54.3868 10.6132 -55.2595 16.6546 -53.9169 22.9646C-53.3128 25.784 -52.5073 28.4019 -50.2249 30.4829C-49.1509 31.4898 -48.3454 32.8323 -47.5398 34.0406C-46.8014 35.1147 -46.1302 36.1887 -45.526 37.3299C-44.5191 39.0752 -43.2437 40.552 -41.7669 41.8945C-39.4174 44.0426 -37.0008 46.2578 -34.7856 48.5402C-32.4362 50.8896 -29.6839 52.4335 -26.5961 53.3733C-23.6425 54.3131 -20.6889 54.6488 -17.1311 54.6488Z" fill="#FFF5D0"/>
<path d="M16.56 14.616C16.56 16.0453 16.2613 17.1333 15.664 17.88C15.0667 18.6267 14.256 19 13.232 19H11.248V10.2H13.248C14.272 10.2 15.0773 10.5787 15.664 11.336C16.2613 12.0933 16.56 13.1867 16.56 14.616ZM15.472 14.616C15.472 14.008 15.4133 13.4907 15.296 13.064C15.1787 12.6267 15.0187 12.2693 14.816 11.992C14.6133 11.704 14.3733 11.496 14.096 11.368C13.8187 11.2293 13.5253 11.16 13.216 11.16H12.32V18.056H13.216C13.5253 18.056 13.8187 17.992 14.096 17.864C14.3733 17.7253 14.6133 17.5173 14.816 17.24C15.0187 16.952 15.1787 16.5947 15.296 16.168C15.4133 15.7307 15.472 15.2133 15.472 14.616ZM18.5918 19V10.2H22.3678V11.16H19.6478V13.992H22.1918V14.904H19.6478V18.04H22.4798V19H18.5918ZM25.9563 11.128V19H24.8843V11.128H23.1883V10.2H27.6523V11.128H25.9563ZM32.332 19L31.82 16.936H29.228L28.716 19H27.644L29.852 10.2H31.26L33.42 19H32.332ZM30.556 11.272H30.508L29.388 16.04H31.66L30.556 11.272ZM34.8105 19V10.2H35.8825V19H34.8105ZM38.373 19V10.2H39.445V18.024H41.957V19H38.373ZM52.5833 14.488C52.5833 15.1813 52.5033 15.8213 52.3433 16.408C52.1939 16.984 51.9699 17.48 51.6713 17.896C51.3833 18.312 51.0206 18.6373 50.5833 18.872C50.1566 19.1067 49.6713 19.224 49.1273 19.224C48.5726 19.224 48.0766 19.1067 47.6393 18.872C47.2126 18.6373 46.8499 18.312 46.5513 17.896C46.2633 17.48 46.0393 16.984 45.8793 16.408C45.7299 15.8213 45.6553 15.1813 45.6553 14.488C45.6553 13.7947 45.7299 13.16 45.8793 12.584C46.0393 12.008 46.2633 11.512 46.5513 11.096C46.8499 10.68 47.2126 10.36 47.6393 10.136C48.0766 9.90133 48.5726 9.784 49.1273 9.784C49.6713 9.784 50.1566 9.90133 50.5833 10.136C51.0206 10.36 51.3833 10.68 51.6713 11.096C51.9699 11.512 52.1939 12.008 52.3433 12.584C52.5033 13.16 52.5833 13.7947 52.5833 14.488ZM50.7593 14.488C50.7593 14.0293 50.7219 13.6133 50.6473 13.24C50.5726 12.856 50.4606 12.5307 50.3113 12.264C50.1726 11.9973 50.0019 11.7893 49.7993 11.64C49.5966 11.4907 49.3726 11.416 49.1273 11.416C48.8713 11.416 48.6419 11.4907 48.4393 11.64C48.2366 11.7893 48.0606 11.9973 47.9113 12.264C47.7726 12.5307 47.6659 12.856 47.5913 13.24C47.5166 13.6133 47.4793 14.0293 47.4793 14.488C47.4793 14.9467 47.5166 15.3627 47.5913 15.736C47.6659 16.1093 47.7726 16.4293 47.9113 16.696C48.0606 16.9627 48.2366 17.1707 48.4393 17.32C48.6419 17.4693 48.8713 17.544 49.1273 17.544C49.6393 17.544 50.0393 17.2667 50.3273 16.712C50.6153 16.1467 50.7593 15.4053 50.7593 14.488ZM58.5304 14.248C58.9357 14.3973 59.261 14.648 59.5064 15C59.7624 15.352 59.8904 15.8213 59.8904 16.408C59.8904 16.888 59.805 17.2933 59.6344 17.624C59.4744 17.9547 59.261 18.2213 58.9944 18.424C58.7277 18.6267 58.4344 18.776 58.1144 18.872C57.7944 18.9573 57.485 19 57.1864 19H54.3384V10.008H56.8984C57.165 10.008 57.453 10.04 57.7624 10.104C58.0824 10.168 58.3757 10.2853 58.6424 10.456C58.9197 10.6267 59.1437 10.8667 59.3144 11.176C59.4957 11.4747 59.5864 11.864 59.5864 12.344C59.5864 12.824 59.4904 13.224 59.2984 13.544C59.1064 13.864 58.8504 14.0987 58.5304 14.248ZM56.0984 11.528V13.64H56.8344C57.101 13.64 57.341 13.5547 57.5544 13.384C57.7784 13.2133 57.8904 12.936 57.8904 12.552C57.8904 12.168 57.7837 11.9013 57.5704 11.752C57.357 11.6027 57.1064 11.528 56.8184 11.528H56.0984ZM56.0984 15.08V17.448H56.9304C57.261 17.448 57.5384 17.3573 57.7624 17.176C57.997 16.9947 58.1144 16.7013 58.1144 16.296C58.1144 16.072 58.077 15.8853 58.0024 15.736C57.9277 15.576 57.8317 15.448 57.7144 15.352C57.597 15.256 57.4637 15.1867 57.3144 15.144C57.1757 15.1013 57.037 15.08 56.8984 15.08H56.0984ZM65.2018 12.088C65.0098 11.8427 64.7964 11.672 64.5618 11.576C64.3378 11.48 64.1138 11.432 63.8898 11.432C63.6444 11.432 63.4204 11.512 63.2178 11.672C63.0258 11.8213 62.9298 12.0827 62.9298 12.456C62.9298 12.7547 63.0258 13 63.2178 13.192C63.4204 13.3733 63.7084 13.5547 64.0818 13.736C64.3058 13.8427 64.5404 13.9707 64.7858 14.12C65.0311 14.2693 65.2551 14.4507 65.4578 14.664C65.6604 14.8667 65.8258 15.112 65.9538 15.4C66.0924 15.6773 66.1618 16.008 66.1618 16.392C66.1618 16.84 66.0871 17.24 65.9378 17.592C65.7884 17.944 65.5858 18.2427 65.3298 18.488C65.0738 18.7227 64.7751 18.904 64.4338 19.032C64.1031 19.16 63.7511 19.224 63.3778 19.224C62.8444 19.224 62.3484 19.1227 61.8898 18.92C61.4311 18.7067 61.0418 18.4293 60.7218 18.088L61.7778 16.744C62.0338 17.0213 62.2951 17.2293 62.5618 17.368C62.8391 17.496 63.1004 17.56 63.3458 17.56C63.6551 17.56 63.8951 17.4693 64.0658 17.288C64.2364 17.096 64.3218 16.8347 64.3218 16.504C64.3218 16.152 64.1884 15.8693 63.9218 15.656C63.6551 15.4427 63.3351 15.2453 62.9618 15.064C62.7378 14.9573 62.5138 14.84 62.2898 14.712C62.0764 14.5733 61.8844 14.408 61.7138 14.216C61.5431 14.024 61.4044 13.7947 61.2978 13.528C61.1911 13.2507 61.1378 12.92 61.1378 12.536C61.1378 12.056 61.2178 11.6453 61.3778 11.304C61.5378 10.952 61.7458 10.664 62.0018 10.44C62.2684 10.216 62.5618 10.0507 62.8818 9.944C63.2124 9.83733 63.5431 9.784 63.8738 9.784C64.3538 9.784 64.7964 9.864 65.2018 10.024C65.6178 10.184 65.9751 10.4347 66.2738 10.776L65.2018 12.088ZM67.7446 19V10.008H72.1766V11.608H69.5526V13.576H71.9846V15.112H69.5526V17.368H72.3206V19H67.7446ZM77.5611 12.088C77.3691 11.8427 77.1558 11.672 76.9211 11.576C76.6971 11.48 76.4731 11.432 76.2491 11.432C76.0038 11.432 75.7798 11.512 75.5771 11.672C75.3851 11.8213 75.2891 12.0827 75.2891 12.456C75.2891 12.7547 75.3851 13 75.5771 13.192C75.7798 13.3733 76.0678 13.5547 76.4411 13.736C76.6651 13.8427 76.8998 13.9707 77.1451 14.12C77.3905 14.2693 77.6145 14.4507 77.8171 14.664C78.0198 14.8667 78.1851 15.112 78.3131 15.4C78.4518 15.6773 78.5211 16.008 78.5211 16.392C78.5211 16.84 78.4465 17.24 78.2971 17.592C78.1478 17.944 77.9451 18.2427 77.6891 18.488C77.4331 18.7227 77.1345 18.904 76.7931 19.032C76.4625 19.16 76.1105 19.224 75.7371 19.224C75.2038 19.224 74.7078 19.1227 74.2491 18.92C73.7905 18.7067 73.4011 18.4293 73.0811 18.088L74.1371 16.744C74.3931 17.0213 74.6545 17.2293 74.9211 17.368C75.1985 17.496 75.4598 17.56 75.7051 17.56C76.0145 17.56 76.2545 17.4693 76.4251 17.288C76.5958 17.096 76.6811 16.8347 76.6811 16.504C76.6811 16.152 76.5478 15.8693 76.2811 15.656C76.0145 15.4427 75.6945 15.2453 75.3211 15.064C75.0971 14.9573 74.8731 14.84 74.6491 14.712C74.4358 14.5733 74.2438 14.408 74.0731 14.216C73.9025 14.024 73.7638 13.7947 73.6571 13.528C73.5505 13.2507 73.4971 12.92 73.4971 12.536C73.4971 12.056 73.5771 11.6453 73.7371 11.304C73.8971 10.952 74.1051 10.664 74.3611 10.44C74.6278 10.216 74.9211 10.0507 75.2411 9.944C75.5718 9.83733 75.9025 9.784 76.2331 9.784C76.7131 9.784 77.1558 9.864 77.5611 10.024C77.9771 10.184 78.3345 10.4347 78.6331 10.776L77.5611 12.088ZM83.5143 12.088C83.3223 11.8427 83.1089 11.672 82.8743 11.576C82.6503 11.48 82.4263 11.432 82.2023 11.432C81.9569 11.432 81.7329 11.512 81.5303 11.672C81.3383 11.8213 81.2423 12.0827 81.2423 12.456C81.2423 12.7547 81.3383 13 81.5303 13.192C81.7329 13.3733 82.0209 13.5547 82.3943 13.736C82.6183 13.8427 82.8529 13.9707 83.0983 14.12C83.3436 14.2693 83.5676 14.4507 83.7703 14.664C83.9729 14.8667 84.1383 15.112 84.2663 15.4C84.4049 15.6773 84.4743 16.008 84.4743 16.392C84.4743 16.84 84.3996 17.24 84.2503 17.592C84.1009 17.944 83.8983 18.2427 83.6423 18.488C83.3863 18.7227 83.0876 18.904 82.7463 19.032C82.4156 19.16 82.0636 19.224 81.6903 19.224C81.1569 19.224 80.6609 19.1227 80.2023 18.92C79.7436 18.7067 79.3543 18.4293 79.0343 18.088L80.0903 16.744C80.3463 17.0213 80.6076 17.2293 80.8743 17.368C81.1516 17.496 81.4129 17.56 81.6583 17.56C81.9676 17.56 82.2076 17.4693 82.3783 17.288C82.5489 17.096 82.6343 16.8347 82.6343 16.504C82.6343 16.152 82.5009 15.8693 82.2343 15.656C81.9676 15.4427 81.6476 15.2453 81.2743 15.064C81.0503 14.9573 80.8263 14.84 80.6023 14.712C80.3889 14.5733 80.1969 14.408 80.0263 14.216C79.8556 14.024 79.7169 13.7947 79.6103 13.528C79.5036 13.2507 79.4503 12.92 79.4503 12.536C79.4503 12.056 79.5303 11.6453 79.6903 11.304C79.8503 10.952 80.0583 10.664 80.3143 10.44C80.5809 10.216 80.8743 10.0507 81.1943 9.944C81.5249 9.83733 81.8556 9.784 82.1863 9.784C82.6663 9.784 83.1089 9.864 83.5143 10.024C83.9303 10.184 84.2876 10.4347 84.5863 10.776L83.5143 12.088ZM86.0571 19V10.008H90.4891V11.608H87.8651V13.576H90.2971V15.112H87.8651V17.368H90.6331V19H86.0571ZM92.3696 19V10.008H94.8176C95.4256 10.008 95.959 10.1147 96.4176 10.328C96.887 10.5307 97.271 10.8293 97.5696 11.224C97.879 11.608 98.1083 12.0827 98.2576 12.648C98.4176 13.2027 98.4976 13.8267 98.4976 14.52C98.4976 15.9173 98.1883 17.016 97.5696 17.816C96.951 18.6053 96.0283 19 94.8016 19H92.3696ZM94.1936 11.56V17.416H94.8176C95.0736 17.416 95.3136 17.3573 95.5376 17.24C95.7616 17.1227 95.9536 16.9467 96.1136 16.712C96.2843 16.4667 96.4176 16.1627 96.5136 15.8C96.6203 15.4373 96.6736 15.0053 96.6736 14.504C96.6736 13.992 96.6203 13.5547 96.5136 13.192C96.4176 12.8187 96.2843 12.5147 96.1136 12.28C95.9536 12.0347 95.7616 11.8533 95.5376 11.736C95.3136 11.6187 95.0736 11.56 94.8176 11.56H94.1936Z" fill="#312600"/>
</g>
<rect x="0.5" y="0.5" width="109" height="28" rx="14" stroke="#DBB52B"/>
<defs>
<clipPath id="clip0_2_52">
<rect width="110" height="29" rx="14.5" fill="white"/>
</clipPath>
</defs>
</svg>
